<svg width="14" height="14" viewBox="0 0 14 14" fill="none" xmlns="http://www.w3.org/2000/svg">
<path d="M4.99992 0.666504V1.99984H8.99992V0.666504H10.3333V1.99984H12.9999C13.3681 1.99984 13.6666 2.29832 13.6666 2.6665V13.3332C13.6666 13.7014 13.3681 13.9998 12.9999 13.9998H0.999919C0.631732 13.9998 0.333252 13.7014 0.333252 13.3332V2.6665C0.333252 2.29832 0.631732 1.99984 0.999919 1.99984H3.66658V0.666504H4.99992ZM12.3333 7.33317H1.66659V12.6665H12.3333V7.33317ZM3.66658 3.33317H1.66659V5.99984H12.3333V3.33317H10.3333V4.6665H8.99992V3.33317H4.99992V4.6665H3.66658V3.33317Z" fill="#FF2525"/>
</svg>
