<svg width="14" height="14" viewBox="0 0 14 14" fill="none" xmlns="http://www.w3.org/2000/svg">
<path d="M6.99999 13.6668C3.31809 13.6668 0.333328 10.682 0.333328 7.00016C0.333328 3.31826 3.31809 0.333496 6.99999 0.333496C10.6819 0.333496 13.6667 3.31826 13.6667 7.00016C13.6667 10.682 10.6819 13.6668 6.99999 13.6668ZM6.99999 12.3335C9.94553 12.3335 12.3333 9.9457 12.3333 7.00016C12.3333 4.05464 9.94553 1.66683 6.99999 1.66683C4.05447 1.66683 1.66666 4.05464 1.66666 7.00016C1.66666 9.9457 4.05447 12.3335 6.99999 12.3335ZM7.66666 7.00016H10.3333V8.3335H6.33333V3.66683H7.66666V7.00016Z" fill="#E74949"/>
</svg>
