<svg width="15" height="15" viewBox="0 0 15 15" fill="none" xmlns="http://www.w3.org/2000/svg">
<path d="M7.26949 0.400391L13.8692 1.3432L14.812 7.94289L8.68369 14.0711C8.42336 14.3315 8.00129 14.3315 7.74089 14.0711L1.14125 7.47149C0.880896 7.21109 0.880896 6.78902 1.14125 6.52862L7.26949 0.400391ZM7.74089 1.8146L2.55546 7.00002L8.21229 12.6569L13.3978 7.47149L12.6907 2.52171L7.74089 1.8146ZM9.15516 6.05722C8.63442 5.53654 8.63442 4.69232 9.15516 4.17162C9.67582 3.65093 10.52 3.65093 11.0408 4.17162C11.5614 4.69232 11.5614 5.53654 11.0408 6.05722C10.52 6.57796 9.67582 6.57796 9.15516 6.05722Z" fill="black"/>
</svg>
