<svg width="80" height="80" viewBox="0 0 80 80" fill="none" xmlns="http://www.w3.org/2000/svg">
<path d="M13.1809 31.936H16.4736V50.0914C16.4838 51.2297 16.2804 52.19 15.8638 52.9725C15.4471 53.755 14.8374 54.3445 14.0345 54.7409C13.2317 55.1474 12.2459 55.3506 11.0772 55.3506H10.4065V52.5H10.94C11.7327 52.5 12.3018 52.2916 12.6473 51.875C12.9929 51.4583 13.1707 50.8587 13.1809 50.0762V31.936ZM14.812 29.314C14.2327 29.314 13.7398 29.1209 13.3333 28.7348C12.9268 28.3485 12.7236 27.8862 12.7236 27.3476C12.7236 26.7988 12.9268 26.3313 13.3333 25.9451C13.7398 25.5589 14.2327 25.3658 14.812 25.3658C15.3811 25.3658 15.8689 25.5589 16.2754 25.9451C16.6921 26.3313 16.9004 26.7988 16.9004 27.3476C16.9004 27.8862 16.6921 28.3485 16.2754 28.7348C15.8689 29.1209 15.3811 29.314 14.812 29.314Z" fill="white"/>
<path d="M25.2328 49.3293C23.6373 49.3293 22.24 48.9634 21.0408 48.2317C19.8517 47.5 18.9269 46.4736 18.2664 45.1525C17.616 43.8313 17.2908 42.2967 17.2908 40.5488C17.2908 38.7805 17.616 37.2358 18.2664 35.9147C18.9269 34.5833 19.8517 33.5518 21.0408 32.8201C22.24 32.0884 23.6373 31.7225 25.2328 31.7225C26.8385 31.7225 28.2359 32.0884 29.4249 32.8201C30.614 33.5518 31.5387 34.5833 32.1993 35.9147C32.8599 37.2358 33.1902 38.7805 33.1902 40.5488C33.1902 42.2967 32.8599 43.8313 32.1993 45.1525C31.5387 46.4736 30.614 47.5 29.4249 48.2317C28.2359 48.9634 26.8385 49.3293 25.2328 49.3293ZM25.2328 46.5396C26.2796 46.5396 27.1434 46.2652 27.8243 45.7165C28.5052 45.1677 29.0082 44.441 29.3334 43.5366C29.6688 42.6219 29.8365 41.626 29.8365 40.5488C29.8365 39.4512 29.6688 38.4451 29.3334 37.5305C29.0082 36.6159 28.5052 35.8842 27.8243 35.3353C27.1434 34.7866 26.2796 34.5122 25.2328 34.5122C24.1963 34.5122 23.3375 34.7866 22.6566 35.3353C21.9859 35.8842 21.4828 36.6159 21.1475 37.5305C20.8121 38.4451 20.6444 39.4512 20.6444 40.5488C20.6444 41.626 20.8121 42.6219 21.1475 43.5366C21.4828 44.441 21.9859 45.1677 22.6566 45.7165C23.3375 46.2652 24.1963 46.5396 25.2328 46.5396Z" fill="white"/>
<path d="M41.1719 49.3293C39.5763 49.3293 38.1789 48.9634 36.9798 48.2317C35.7907 47.5 34.866 46.4736 34.2053 45.1525C33.5549 43.8313 33.2297 42.2967 33.2297 40.5488C33.2297 38.7805 33.5549 37.2358 34.2053 35.9147C34.866 34.5833 35.7907 33.5518 36.9798 32.8201C38.1789 32.0884 39.5763 31.7225 41.1719 31.7225C42.7775 31.7225 44.1749 32.0884 45.3639 32.8201C46.5529 33.5518 47.4777 34.5833 48.1383 35.9147C48.7988 37.2358 49.1291 38.7805 49.1291 40.5488C49.1291 42.2967 48.7988 43.8313 48.1383 45.1525C47.4777 46.4736 46.5529 47.5 45.3639 48.2317C44.1749 48.9634 42.7775 49.3293 41.1719 49.3293ZM41.1719 46.5396C42.2186 46.5396 43.0824 46.2652 43.7633 45.7165C44.4442 45.1677 44.9473 44.441 45.2725 43.5366C45.6078 42.6219 45.7755 41.626 45.7755 40.5488C45.7755 39.4512 45.6078 38.4451 45.2725 37.5305C44.9473 36.6159 44.4442 35.8842 43.7633 35.3353C43.0824 34.7866 42.2186 34.5122 41.1719 34.5122C40.1352 34.5122 39.2765 34.7866 38.5956 35.3353C37.9249 35.8842 37.4218 36.6159 37.0865 37.5305C36.7511 38.4451 36.5834 39.4512 36.5834 40.5488C36.5834 41.626 36.7511 42.6219 37.0865 43.5366C37.4218 44.441 37.9249 45.1677 38.5956 45.7165C39.2765 46.2652 40.1352 46.5396 41.1719 46.5396Z" fill="white"/>
<path d="M57.1108 49.3293C55.5152 49.3293 54.1179 48.9634 52.9187 48.2317C51.7297 47.5 50.8049 46.4736 50.1443 45.1525C49.4939 43.8313 49.1687 42.2967 49.1687 40.5488C49.1687 38.7805 49.4939 37.2358 50.1443 35.9147C50.8049 34.5833 51.7297 33.5518 52.9187 32.8201C54.1179 32.0884 55.5152 31.7225 57.1108 31.7225C58.7165 31.7225 60.1138 32.0884 61.3028 32.8201C62.4919 33.5518 63.4166 34.5833 64.0773 35.9147C64.7378 37.2358 65.068 38.7805 65.068 40.5488C65.068 42.2967 64.7378 43.8313 64.0773 45.1525C63.4166 46.4736 62.4919 47.5 61.3028 48.2317C60.1138 48.9634 58.7165 49.3293 57.1108 49.3293ZM57.1108 46.5396C58.1575 46.5396 59.0213 46.2652 59.7022 45.7165C60.3831 45.1677 60.8862 44.441 61.2114 43.5366C61.5467 42.6219 61.7144 41.626 61.7144 40.5488C61.7144 39.4512 61.5467 38.4451 61.2114 37.5305C60.8862 36.6159 60.3831 35.8842 59.7022 35.3353C59.0213 34.7866 58.1575 34.5122 57.1108 34.5122C56.0742 34.5122 55.2155 34.7866 54.5346 35.3353C53.8638 35.8842 53.3608 36.6159 53.0254 37.5305C52.69 38.4451 52.5223 39.4512 52.5223 40.5488C52.5223 41.626 52.69 42.6219 53.0254 43.5366C53.3608 44.441 53.8638 45.1677 54.5346 45.7165C55.2155 46.2652 56.0742 46.5396 57.1108 46.5396Z" fill="white"/>
<path d="M69.1928 26.2652V48.9787H65.9004V26.2652H69.1928Z" fill="white"/>
</svg>
