<svg width="24" height="24" viewBox="0 0 24 24" fill="none" xmlns="http://www.w3.org/2000/svg">
<g clip-path="url(#clip0_1281_589)">
<path fill-rule="evenodd" clip-rule="evenodd" d="M3.96823 9C5.18429 5.74572 8.32155 3.42857 12 3.42857C15.6784 3.42857 18.8157 5.74572 20.0318 9H3.96823ZM3.4391 11.5714C3.4321 11.7134 3.42857 11.8563 3.42857 12C3.42857 16.2969 6.59035 19.8554 10.7143 20.4756V15.6735L7.125 11.5714H3.4391ZM13.2857 20.4756C17.4096 19.8554 20.5714 16.2969 20.5714 12C20.5714 11.8563 20.5678 11.7134 20.561 11.5714H16.875L13.2857 15.6735V20.4756ZM12 0C5.37259 0 0 5.37259 0 12C0 18.6274 5.37259 24 12 24C18.6274 24 24 18.6274 24 12C24 5.37259 18.6274 0 12 0Z" fill="#A0A0A0"/>
</g>
<defs>
<clipPath id="clip0_1281_589">
<rect width="24" height="24" fill="white"/>
</clipPath>
</defs>
</svg>
