<svg width="64" height="64" viewBox="0 0 64 64" fill="none" xmlns="http://www.w3.org/2000/svg">
<path d="M56.0129 7.99945C57.4857 7.99945 58.6796 9.19334 58.6796 10.6661V25.3328C54.9977 25.3328 52.0129 28.3176 52.0129 31.9995C52.0129 35.6813 54.9977 38.6661 58.6796 38.6661V53.3328C58.6796 54.8056 57.4857 55.9995 56.0129 55.9995H8.01286C6.54011 55.9995 5.34619 54.8056 5.34619 53.3328V38.6661C9.02808 38.6661 12.0129 35.6813 12.0129 31.9995C12.0129 28.3176 9.02808 25.3328 5.34619 25.3328V10.6661C5.34619 9.19334 6.54011 7.99945 8.01286 7.99945H56.0129ZM53.3462 13.3328H10.6795V21.2475L11.0952 21.4636C14.6648 23.4156 17.1336 27.1288 17.3331 31.4347L17.3462 31.9995C17.3462 36.544 14.82 40.4984 11.0952 42.5352L10.6795 42.7488V50.6661H53.3462V42.7488L52.9305 42.5352C49.3609 40.5832 46.8921 36.8701 46.6926 32.5643L46.6796 31.9995C46.6796 27.4549 49.2057 23.5004 52.9305 21.4636L53.3462 21.2475V13.3328Z" fill="#E74949"/>
<path d="M32 42C26.4771 42 22 37.5228 22 32C22 26.4771 26.4771 22 32 22C37.5228 22 42 26.4771 42 32C42 37.5228 37.5228 42 32 42ZM32 30.5858L29.1716 27.7574L27.7574 29.1716L30.5858 32L27.7574 34.8284L29.1716 36.2426L32 33.4142L34.8284 36.2426L36.2426 34.8284L33.4142 32L36.2426 29.1716L34.8284 27.7574L32 30.5858Z" fill="#E74949"/>
</svg>
